<svg data-name="Layer 1" xmlns="http://www.w3.org/2000/svg" viewBox="0 0 48 48"><defs><linearGradient id="a" x1="37.2" y1="32.6" x2="4.2" y2="19.8" gradientTransform="matrix(1.5 0 0 -1.5 -7.3 62.5)" gradientUnits="userSpaceOnUse"><stop offset="0" stop-color="#b6509e"/><stop offset="1" stop-color="#2ebac6"/></linearGradient></defs><path d="M0 24C0 10.7 10.7 0 24 0s24 10.7 24 24-10.7 24-24 24S0 37.3 0 24z" style="stroke-width:0;fill:url(#a)"/><path d="M34.8 19.1c-.1-5.9-5-10.5-10.8-10.4-5.7.1-10.3 4.7-10.4 10.4v19.4c0 .7.5 1.2 1.2 1.2s1.2-.5 1.2-1.2v-3.4c0-.7.5-1.2 1.2-1.2s1.2.5 1.2 1.2v1.6c0 .7.6 1.2 1.2 1.2s1.1-.5 1.2-1.2v-1.6c0-.7.5-1.2 1.2-1.2s1.2.5 1.2 1.2v.4c0 .7.5 1.2 1.2 1.2s1.2-.5 1.2-1.2v-.4c0-.7.6-1.2 1.2-1.2s1.1.5 1.2 1.2v1.6c0 .7.5 1.2 1.2 1.2s1.2-.5 1.2-1.2v-1.6c0-.7.5-1.2 1.2-1.2s1.2.5 1.2 1.2v3.4c0 .7.5 1.2 1.2 1.2s1.2-.5 1.2-1.2V19.1zm-14.5 1.7c-1 0-1.9-1-1.9-2.2s.8-2.2 1.9-2.2 1.9 1 1.9 2.2-.8 2.2-1.9 2.2zm4 3.1c-.9 0-1.7-.6-1.7-1.3s.8-.3 1.7-.3 1.7-.4 1.7.3-.8 1.3-1.7 1.3zm3.8-3.1c-1 0-1.9-1-1.9-2.2s.8-2.2 1.9-2.2 1.9 1 1.9 2.2-.8 2.2-1.9 2.2z" style="fill:#fff;stroke-width:0"/></svg>