<svg width="3582" height="721" fill="none" xmlns="http://www.w3.org/2000/svg"><path fill-rule="evenodd" clip-rule="evenodd" d="M1363.3 586.055h-237.07L1084.83 720H900L1163.19 3h162.65L1591 720h-185.81l-41.89-133.945zM1168 452h154l-77.25-249L1168 452zM1642 3v717h235.73c62.01-.328 118.2-15.184 168.56-44.566 50.36-29.383 89.4-70.091 117.12-122.127 27.73-52.035 41.59-110.882 41.59-176.541v-32.994c-.33-65.003-14.68-123.686-43.06-176.049-28.38-52.364-67.83-92.908-118.36-121.634S1936.13 3 1872.81 3H1642zm174 134v450h60.02c49.52 0 87.57-17.623 114.13-52.869C2016.72 498.885 2030 446.509 2030 377v-30.984c0-69.18-13.28-121.311-39.85-156.393-26.56-35.082-65.26-52.623-116.1-52.623H1816zm649.23 449.055h237.07L2744.19 720H2930L2664.84 3h-162.65L2239 720h184.83l41.4-133.945zM2507 452h154l-77.25-249L2507 452zm902.08 268H3581V3h-172.41v446.155L3154.9 3H2982v717h172.9V273.845L3409.08 720z" fill="#082542"/><path d="M1126.23 586.055v-.5h-.37l-.11.352.48.148zm237.07 0 .47-.149-.11-.351h-.36v.5zM1084.83 720v.5h.36l.11-.352-.47-.148zM900 720l-.469-.172-.247.672H900v-.5zM1163.19 3v-.5h-.35l-.12.328.47.172zm162.65 0 .47-.173-.12-.327h-.35V3zM1591 720v.5h.72l-.25-.673-.47.173zm-185.81 0-.48.149.11.351h.37v-.5zM1322 452v.5h.68l-.2-.648-.48.148zm-154 0-.48-.147-.2.647h.68v-.5zm76.75-249 .48-.148-.48-1.544-.47 1.545.47.147zM1642 720h-.5v.5h.5v-.5zm0-717v-.5h-.5V3h.5zm235.73 717v.5-.5zM2205 343.772h.5v-.003l-.5.003zM1816 587h-.5v.5h.5v-.5zm0-450v-.5h-.5v.5h.5zm174.15 397.131-.4-.301.4.301zm0-344.508-.4.302.4-.302zm712.15 396.432.47-.149-.11-.351h-.36v.5zm-237.07 0v-.5h-.37l-.11.352.48.148zM2744.19 720l-.48.149.11.351h.37v-.5zm185.81 0v.5h.72l-.25-.673-.47.173zM2664.84 3l.47-.173-.12-.327h-.35V3zm-162.65 0v-.5h-.35l-.12.328.47.172zM2239 720l-.47-.172-.25.672h.72v-.5zm184.83 0v.5h.36l.11-.352-.47-.148zM2661 452v.5h.68l-.2-.648-.48.148zm-154 0-.48-.147-.2.647h.68v-.5zm76.75-249 .48-.148-.48-1.544-.47 1.545.47.147zM3581 720v.5h.5v-.5h-.5zm-171.92 0-.43.247.14.253h.29v-.5zM3581 3h.5v-.5h-.5V3zm-172.41 0v-.5h-.5V3h.5zm0 446.155-.43.247.93 1.644v-1.891h-.5zM3154.9 3l.44-.247-.15-.253h-.29V3zM2982 3v-.5h-.5V3h.5zm0 717h-.5v.5h.5v-.5zm172.9 0v.5h.5v-.5h-.5zm0-446.155.44-.248-.94-1.64v1.888h.5zm-2028.67 312.71h237.07v-1h-237.07v1zm-40.93 133.593 41.4-133.945-.95-.296-41.4 133.945.95.296zM900 720.5h184.83v-1H900v1zM1162.72 2.828l-263.189 717 .938.344 263.191-717-.94-.344zm163.12-.328h-162.65v1h162.65v-1zm265.63 717.327-265.16-717-.94.346 265.16 717 .94-.346zm-186.28.673H1591v-1h-185.81v1zm-42.37-134.296 41.89 133.945.96-.298-41.9-133.945-.95.298zM1322 451.5h-154v1h154v-1zm-77.72-248.352 77.24 249 .96-.296-77.25-249-.95.296zm-75.8 248.999 76.75-249-.95-.294-76.76 249 .96.294zM1642.5 720V3h-1v717h1zm235.23-.5H1642v1h235.73v-1zm168.31-44.498c-50.29 29.336-106.38 44.17-168.31 44.498v1c62.1-.329 118.37-15.205 168.81-44.634l-.5-.864zm116.93-121.93c-27.68 51.955-66.65 92.594-116.93 121.93l.5.864c50.44-29.43 89.55-70.207 117.32-122.324l-.89-.47zm41.53-176.306c0 65.587-13.85 124.351-41.53 176.306l.89.47c27.76-52.115 41.64-111.044 41.64-176.776h-1zm0-32.994v32.994h1v-32.994h-1zm-43-175.811c28.34 52.285 42.67 110.885 43 175.814l1-.006c-.33-65.077-14.7-123.842-43.12-176.284l-.88.476zM2043.33 46.524c50.45 28.678 89.83 69.154 118.17 121.437l.88-.476c-28.43-52.444-67.94-93.057-118.55-121.83l-.5.869zM1872.81 3.5c63.24 0 120.08 14.344 170.52 43.024l.5-.87C1993.22 16.882 1936.21 2.5 1872.81 2.5v1zM1642 3.5h230.81v-1H1642v1zM1816.5 587V137h-1v450h1zm59.52-.5H1816v1h60.02v-1zm113.73-52.67c-26.46 35.104-64.34 52.67-113.73 52.67v1c49.66 0 87.86-17.68 114.53-53.068l-.8-.602zM2029.5 377c0 69.458-13.28 121.708-39.75 156.83l.8.602c26.66-35.37 39.95-87.873 39.95-157.432h-1zm0-30.984V377h1v-30.984h-1zm-39.75-156.091c26.47 34.958 39.75 86.961 39.75 156.091h1c0-69.231-13.29-121.489-39.95-156.695l-.8.604zm-115.7-52.425c50.71 0 89.25 17.488 115.7 52.425l.8-.604c-26.68-35.227-65.53-52.821-116.5-52.821v1zm-58.05 0h58.05v-1H1816v1zm886.3 448.055h-237.07v1h237.07v-1zm42.37 134.296-41.9-133.945-.95.298 41.89 133.945.96-.298zM2930 719.5h-185.81v1H2930v-1zM2664.37 3.173l265.16 717 .94-.346-265.16-717-.94.346zm-162.18.327h162.65v-1h-162.65v1zm-262.72 716.672 263.19-717-.94-.344-263.19 717 .94.344zm184.36-.672H2239v1h184.83v-1zm40.92-133.593-41.4 133.945.95.296 41.4-133.945-.95-.296zM2661 451.5h-154v1h154v-1zm-77.72-248.352 77.24 249 .96-.296-77.25-249-.95.296zm-75.8 248.999 76.75-249-.95-.294-76.76 249 .96.294zM3581 719.5h-171.92v1H3581v-1zM3580.5 3v717h1V3h-1zm-171.91.5H3581v-1h-172.41v1zm.5 445.655V3h-1v446.155h1zM3154.47 3.247l253.69 446.155.86-.494L3155.34 2.753l-.87.494zM2982 3.5h172.9v-1H2982v1zm.5 716.5V3h-1v717h1zm172.4-.5H2982v1h172.9v-1zm-.5-445.655V720h1V273.845h-1zm255.12 445.908-254.18-446.156-.87.495 254.18 446.155.87-.494z" fill="#7F7F7F"/><path fill="#FFBDA4" d="M0 120h600v600H0z"/><path fill="#082542" d="M120 0h600v600H120z"/></svg>