<svg xmlns="http://www.w3.org/2000/svg" viewBox="0 0 1214.73 362.97"><defs><style>.cls-1{fill:#21185c}</style></defs><g id="Layer_2" data-name="Layer 2"><g id="Layer_1-2" data-name="Layer 1"><g id="O8ixz3"><path class="cls-1" d="M1033.43 220c-1.09-14-6.42-25.69-18.07-34.49l4.69-3.29a33.66 33.66 0 0 0 14.11-21.58c5.72-28.34-12.91-55-42.15-57.22-25.34-1.87-50.9-.77-76.35-1-.14 0-.28.15-.72.4v157.76H949V204a12.57 12.57 0 0 1 2-.4c9.16 0 18.32-.11 27.48-.06 12.11.07 19.3 6.39 20.8 18.39 1.31 10.41 2.44 20.83 3.63 31.25.45 3.91 2.65 7.21 6.31 7.42 9.23.54 18.5.18 28.24.18-1.46-13.96-3-27.35-4.03-40.78zm-49.05-46.16c-11.58.75-23.25.18-35.34.18v-42.9c12.51 0 24.85-.89 37 .26 10.69 1 16.51 10.32 16.15 22.34-.32 10.76-7.34 19.45-17.81 20.12zM1205 235.43q-24.07-63.43-48.1-126.93c-1.73-4.59-4.44-6.59-9.35-6.37-6 .26-12 .3-18 0-5.28-.27-8.14 1.75-10 6.81q-23.16 61.66-46.7 123.2l-11 28.88c11.35 0 22 .11 32.63-.14 1.23 0 3-1.76 3.54-3.1 3.51-9.16 6.8-18.41 10-27.67.86-2.49 2-3.79 4.93-3.77q25.23.19 50.47 0c2.82 0 4.08 1 5 3.67q4.65 13.69 9.82 27.22c.58 1.51 2.39 3.58 3.68 3.62 10.63.29 21.27.16 32.78.16-3.45-9.15-6.58-17.36-9.7-25.58zm-85.22-37.77c6.07-16.87 12.08-33.54 18.08-50.21l1.12.11c5.89 16.52 11.77 33.05 17.85 50.1zM598.35 258.44Q569.66 182.87 541 107.29c-1.38-3.64-3.85-5.15-7.63-5.11-6.49.06-13 .24-19.48-.06-5.13-.23-7.88 1.87-9.68 6.63q-24.82 65.83-49.9 131.57c-2.52 6.64-5 13.3-7.65 20.42h35.06c3.71-10.22 7.49-20.34 11-30.55 1-2.81 2.32-3.89 5.34-3.86q24.74.19 49.46 0c3.19 0 4.71 1 5.73 4.06q4.65 13.69 9.88 27.2c.56 1.43 2.51 3.25 3.87 3.29 10.47.27 20.95.15 32 .15-.33-1.35-.42-2.03-.65-2.59zm-94-60.67 18-49.84 1.29-.21 17.9 50.05zM882 102.19c-1.12 2.14-1.82 3.59-2.63 5q-23.51 40.37-47.08 80.69a30.08 30.08 0 0 0-4.44 16.12c.2 17 .07 34 .07 51v5.9h-33.7c-.08-1.9-.22-3.66-.22-5.42 0-17.34.27-34.68-.19-52a32.57 32.57 0 0 0-3.91-14.6c-15.49-27.39-31.44-54.52-47.24-81.75-.74-1.28-1.42-2.6-2.67-4.89h16.28c22.91 0 18.71-1.77 29.61 17.21 7.55 13.14 15 26.37 22.42 39.55.72 1.27 1.55 2.47 2.78 4.41 1.2-2 2.15-3.44 3-5 9.28-16.37 18.65-32.68 27.77-49.14 2.74-5 6.51-7.2 12.09-7.11 9.06.13 18.19.03 28.06.03zM739.63 243.59c0 5.17 0 10.33-.08 15.5a6.49 6.49 0 0 1-.53 1.65H633.5V102.51H667c.13 2.1.37 4.19.37 6.27 0 39 .09 78-.09 117 0 4.69 1 6.3 6 6.22 18.16-.3 36.33-.14 54.5-.11 8.6.02 11.8 3.19 11.85 11.7zM284.63 142.46c0 5.64-2 10.68-6.93 13.66-11.82 7.12-23.84 13.88-35.79 20.88l-1-.65c9.93-15.18 9.21-32.34 9.39-49.24.23-22.16-.16-44.32 0-66.48.09-10.26-4.17-17.39-13-22.35-12.2-6.84-24.18-13.97-37.3-21.56C209.84 11.3 218.61 6 227.79 1.54c5.69-2.77 11.78-1.53 17.27 1.58 9 5.08 18 10.17 26.82 15.47 8.38 5 12.74 12.72 12.78 22.39.14 33.83.04 67.65-.03 101.48zM153.59 135.86c-15.83-1.59-28.34 4.79-40.51 11.59-22.8 12.75-45.38 25.9-68 39-7.39 4.3-10.68 11.11-10.65 19.63.05 12.66 0 25.32 0 38v6.71c-9.89-6-19-11.07-27.52-17-4.81-3.34-6.78-9-6.84-14.94-.1-10.66-.24-21.33 0-32 .24-9.31 4.51-16.74 12.57-21.43 29.21-17 58.54-33.76 87.8-50.63 5.63-3.24 11.36-3.75 17.09-.47 11.26 6.45 22.47 13 33.69 19.53a24.18 24.18 0 0 1 2.37 2.01zM318.71 310c-.41 5.83-4.73 10.13-9.87 13.11-8.63 5-17.25 10-25.93 15-9 5.13-18.11 5.11-27.07-.06Q212.37 313 169 287.79c-5.46-3.16-8.71-7.79-8.78-14.15-.13-13.65 0-27.3 0-40.94 8.23 15.11 22.4 23 36.08 31.14 20.43 12.21 41.17 23.89 61.78 35.78q11.36 6.56 22.76 0 16.67-9.57 33.31-19.18c1.54-.88 3.11-1.71 4.84-2.65-.07 11.13.45 21.71-.28 32.21zM369 177.81c-.3 8.8-4.94 15.55-12.44 19.91q-44.07 25.58-88.3 50.85c-5.34 3.07-10.79 3.27-16.17.2-11.71-6.68-23.38-13.44-35.06-20.16 17.72.14 32-8.77 46.51-16.84 19.63-10.94 38.91-22.51 58.46-33.6 9-5.12 13.29-12.51 13.09-22.88-.23-12.32-.05-24.66-.05-37v-5.79c9.39 5.56 18.13 10.33 26.41 15.79a17.19 17.19 0 0 1 7.63 14.53c.19 11.67.34 23.34-.08 34.99zM209.13 129.63c-.53 0-1 .11-1.07 0-7.86-14.74-21.74-22.66-35.32-30.73-20-11.89-40.34-23.33-60.49-35-8.26-4.79-16.35-4.74-24.58.08-12.19 7.09-24.46 14.1-37.58 21.67 0-10.69-.38-20.5.13-30.27.35-6.71 4.32-11.83 10.08-15.23 9-5.34 18.09-10.63 27.28-15.67 8.37-4.59 17-4.54 25.28.21q43.94 25.25 87.74 50.74c5.64 3.27 8.6 8.06 8.56 14.73-.09 13.15-.03 26.3-.03 39.47zM169.08 346.38c-9 5.08-17.18 10.08-25.71 14.5-6.17 3.2-12.66 2.56-18.69-.83-9.28-5.22-18.57-10.45-27.66-16-7.81-4.76-12-12-12-21.17-.08-34.32 0-68.65 0-103 0-5.61 2.31-10.2 7-13 11.81-7.14 23.81-13.95 35.74-20.88-8.57 14.75-8.36 30.91-8.61 46.82-.38 23.48-.1 47-.1 70.47 0 9.3 3.93 16.28 12.07 20.91 11.13 6.35 22.21 12.8 33.3 19.22 1.39.81 2.73 1.73 4.66 2.96z"/></g></g></g></svg>