<svg data-name="Layer 1" xmlns="http://www.w3.org/2000/svg" viewBox="0 0 16 16"><defs><linearGradient id="a" x1="2.3" y1="13.7" x2="13.7" y2="2.3" gradientUnits="userSpaceOnUse"><stop offset="0" stop-color="#f7931a"/><stop offset="1" stop-color="#f7711a"/></linearGradient></defs><path d="M15.8 9.9c-1.1 4.3-5.4 6.9-9.7 5.8-4.3-1-6.9-5.3-5.9-9.6A8.1 8.1 0 0 1 9.9.2c4.3 1.1 6.9 5.4 5.8 9.7z" style="stroke-width:0;fill:url(#a)"/><path d="M11.5 6.9c.2-1.1-.7-1.6-1.8-2l.4-1.4-.9-.2-.4 1.4c-.2 0-.5-.1-.7-.2l.4-1.4-.9-.2-.4 1.4c-.2 0-.4 0-.6-.1s-1.2-.3-1.2-.3l-.2.9s.7.1.6.2c.4 0 .4.3.4.5l-.4 1.6-.6 2.3c0 .1-.2.3-.4.2l-.6-.2-.4 1 1.1.3c.2 0 .4.1.6.2l-.4 1.5.9.2.4-1.4c.2 0 .5.1.7.2l-.4 1.4.9.2.4-1.5c1.5.3 2.6.2 3.1-1.2.4-1.1 0-1.7-.8-2.1.6-.1 1-.5 1.1-1.3zm-2 2.8c-.3 1.1-2.1.5-2.7.4l.5-1.9c.6.1 2.5.4 2.2 1.6zm.3-2.9c-.2 1-1.8.5-2.3.4l.4-1.8c.5.1 2.1.4 1.8 1.4z" style="fill:#fff;stroke-width:0"/></svg>