<svg data-name="Layer 1"
    xmlns="http://www.w3.org/2000/svg" viewBox="0 0 16 16">
    <defs>
        <linearGradient id="a" x1="0" y1="636" x2="16" y2="636" gradientTransform="translate(0 -628)" gradientUnits="userSpaceOnUse">
            <stop offset="0" stop-color="#f2bf42"/>
            <stop offset="1" stop-color="#eda73b"/>
        </linearGradient>
        <linearGradient id="b" x1="-524.1" y1="1206.8" x2="-514.4" y2="1206.8" gradientTransform="rotate(14 4625.508 2754.206)" gradientUnits="userSpaceOnUse">
            <stop offset="0" stop-color="#fff"/>
            <stop offset="1" stop-color="#fff" stop-opacity=".8"/>
        </linearGradient>
    </defs>
    <circle cx="8" cy="8" r="8" style="stroke-width:0;fill:url(#a)"/>
    <path d="M13.1 6.8c0-.6-.3-1.1-.8-1.4-.6-.5-1.4-.9-2.2-1.2l.2-.7c0-.3 0-.7-.4-.7s-.6.1-.7.5v.6c-.5-.1-.9-.2-1.2-.3v-.5c.2-.3 0-.7-.3-.7s-.6.1-.7.5l-.2.6H5.5c-.3 0-.7.1-.9.3-.5.3-.9.9-1 1.5v1.8L3 9.2c-.2.5-.2 1.4.4 2.1.2.3.6.5.9.6h.4v.5c-.2.3 0 .7.3.7s.6-.1.7-.5V12c.3 0 .5 0 .7.1s.4.1.5.2v.5c-.2.3 0 .7.3.7s.6-.1.7-.5v-.4c.4.1.7.2 1 .3.6.2 1.1 0 1.7-.3.6-.4.8-1.1.9-1.4.1-.5.2-1 .4-1.4 0-.3.2-.8.4-1 .2-.3.4-.5.6-.8.2-.4.3-.9.3-1.4zm-1.7.6c-.1.4-.4.5-.6.9-.2.3-.3.5-.4.8l-.6 2.1c-.2.7-.9 1.2-1.6 1-.4-.1-.7-.3-1.1-.4-.3 0-.6-.2-.9-.3H6c-.4 0-.7-.2-1.1-.2h-.4c-.2 0-.3-.1-.5-.2-.5-.4-.5-1.1-.4-1.5l.6-2.3V6c-.2-.9.4-1.6 1.1-1.7h1.3c.4 0 .8 0 1.1.2s.7.2 1.1.3c.1 0 .3 0 .4.1s.2 0 .2 0c.1 0 .3.1.4.2.4.2.8.4 1.1.7.4.3.6 1 .4 1.5z" style="fill:url(#b);stroke-width:0"/>
</svg>