<?xml version="1.0" encoding="UTF-8"?>
<svg id="Layer_2" data-name="Layer 2" xmlns="http://www.w3.org/2000/svg" viewBox="0 0 3334 887.92">
  <g id="Layer_1-2" data-name="Layer 1">
    <g>
      <path d="M0,469.91v-50.94C19.6,83.36,397.34-114.16,684.27,71.34c278.39,179.97,268.62,590.86-18.21,756.97C381.19,993.28,16.25,797.12,0,469.91ZM651.76,237.17h-314.38l-175.49,206.32,1,3,174.49,204.22h314.38v-138.84h-40.98v96.89h-217.92l141.88-165.18-141.88-164.45h217.92v96.89h40.98v-138.84Z"/>
      <polygon points="1468.46 178.24 1468.46 226.18 1170.57 226.18 1170.57 410.98 1446.47 410.98 1446.47 458.42 1444.97 459.92 1170.57 459.92 1170.57 655.7 1468.46 655.7 1468.46 704.64 1114.59 704.64 1114.59 178.24 1468.46 178.24"/>
      <path d="M2547.06,529.84h-280.9v58.43c0,30.29,29.52,62.33,57.76,70.14,20.35,5.62,73.32,4.93,95.72,3.32,36.1-2.6,67.58-26.6,72.31-63.59.53-4.15-1.19-9.32,1.62-12.36h50.98c.43,0,1.68,1.57,1.45,2.4-1.12,9.76-1.56,18.71-3.63,28.38-12.71,59.34-65.8,90.97-123.73,94.12-46.2,2.51-107.97,3.98-148.01-21-83.83-52.29-53.88-151.26-59.5-234.3,4.06-73.4,54.12-127.88,128.5-132.3,24.79-1.47,59.21-1.5,84-.05,58.42,3.4,105.22,41.11,118.74,98.11,8.36,35.25,3.27,72.72,4.67,108.7ZM2492.08,481.9c.09-19.25,1.17-37.93-4.96-56.47-9.27-28.02-33.18-50.91-63.53-53.39-22.51-1.84-59.28-1.54-82-.06-31.31,2.04-57.98,24.24-68.91,53-7.04,18.54-6.99,37.34-6.51,56.92h225.92Z"/>
      <path d="M3280.79,704.64v-51.94l-10.48,14c-39.37,45.31-91.56,47.03-148,43.98-54.65-2.96-106.41-34.39-110.46-93.4-3.52-51.23,1.01-95.19,48.72-123.21,47.83-28.09,153.35-23.06,202.92.62,5.12,2.45,9.82,6.48,15.31,8.18v-73.42c0-30.43-33.9-56.36-62.44-58.47-24.13-1.78-81.28-2.43-102.75,5.29-21.37,7.69-38.33,25.89-36.74,49.69h-54.98c-.96-55.92,42.81-92.09,94.76-100.6,29.75-4.87,101.41-5.13,130.17,2.2,55.67,14.17,83.55,58.3,86,113.84,3.78,85.59-2.97,173.93,0,259.81l-1.55,3.45h-50.48ZM3129.64,524.14c-32.66,2.34-61.35,18.66-63.81,54.1-2.76,39.64,3.76,75.24,48.79,83.18,20.84,3.67,75.99,2.96,95.98-3.44,28.54-9.15,63.2-41.43,67.95-71.94.77-4.98,1.1-25.08.22-29.7-1.13-5.94-25.02-17.55-31-19.97-34.13-13.83-81.51-14.84-118.13-12.22Z"/>
      <path d="M1867.31,178.24v200.77c17.24-22.57,39.82-42.28,67.44-50.98,25.09-7.9,92.12-7.5,117.71-.68,52.99,14.12,80.88,64.7,82.74,117.09l.06,256.75-1.55,3.45h-53.48v-265.19c-2-29.76-21-64.29-53.49-67.43-18.2-1.76-67.34-1.76-83.9,3.05-34.07,9.9-62.04,43.85-71.8,77.09-.79,2.7-3.73,12.34-3.73,14.25v238.23h-54.98V178.24h54.98Z"/>
      <path d="M2943.91,704.64h-53.98v-259.2c-.49-31.79-19.36-70.18-54.5-73.41-16.9-1.55-60.55-1.77-76.3,1.64-36.12,7.83-66.07,43.09-76.63,77.26-.94,3.03-4.5,15.3-4.5,17.48v236.23h-53.48l-1.5-1.5v-374.08h52.98v54.94c18.8-26.44,46.07-50.16,78.34-58.06,23.09-5.66,84.62-4.81,107.8,1.41,48.58,13.04,78.12,59.58,81.74,108.1v269.19Z"/>
      <path d="M1637.39,329.07h96.96v48.94h-96.96v232.24c0,8.55,6.99,25.6,12.97,31.99s21.92,13.46,30.51,13.46h53.48v48.94c-42.5-.33-104.65,5.49-132.78-33.63-13.43-18.68-17.11-41.24-19.2-63.72l.04-229.28h-65.98v-48.94h65.98v-113.87h53.48l1.5,1.5v112.37Z"/>
      <polygon points="345.89 597.77 215.99 444.3 346.37 290.13 479.75 443.57 345.89 597.77"/>
    </g>
  </g>
</svg>