<svg id="Layer_1" data-name="Layer 1" xmlns="http://www.w3.org/2000/svg" version="1.1" viewBox="0 0 300 100"><defs><style>.cls-1{fill:#000;stroke-width:0}</style></defs><path class="cls-1" d="M43.7 5.8V6H6.8V27.9H.6c-.1-.3 0-.6 0-.9V-.5h43.2c0 .1.1.3.1.4v5.7zM43.7 99.8H.4V71.5h6.3c.1.3 0 .6 0 .9v21.1H43.5c.2.2.1.5.1.7V99.8zM300.3-.2v28.5H294.1c-.1-.3 0-.5 0-.8V6.4h-37V.6c0-.2 0-.4.1-.5h43.2zM300.3 71.4v28.4H257v-6.2h36.9V71.7h6.2zM256.7 58c-.1-.8-.4-1.7-.7-2.5-.6-1.3-1.6-2.3-2.9-2.9-.6-.3-1.3-.5-2-.6-.2 0-.4 0-.6-.1v-.8c.2 0 .3-.1.5-.2 2.6-.8 4.5-2.5 5.8-4.8 2.1-3.7 1.9-8.7-1.1-12.4-1.9-2.4-4.3-3.9-7.2-4.7-1.8-.5-3.7-.8-5.5-.8h-14.4c-.1.7-.2 38.9 0 42.6v.4h6.2V54.1h9.6c.6 0 1.2 0 1.9.2 2.2.4 3.6 1.7 4.1 3.9.2.9.3 1.8.3 2.8V71.2H256.9v-9.8c0-1.1 0-2.3-.3-3.4zm-8.3-10.1c-.9.4-1.8.5-2.7.5H234.7c-.1-.7-.2-8.1 0-14v-.6H245c1 0 1.9.1 2.8.4 1.5.5 2.5 1.4 2.9 3 .1.5.2 1.1.3 1.6v4.7c0 .7-.2 1.4-.4 2.1-.4 1.1-1.1 1.9-2.2 2.3zM159.5 43.8v12.5c0 1.6.1 3.2.6 4.7.1.4.2.8.4 1.2.7 1.8 2.1 3 4 3.4.7.2 1.4.3 2.1.3h4.2c.8 0 1.7-.2 2.5-.4 1.8-.5 3-1.7 3.6-3.4.3-.7.4-1.5.5-2.2.2-1.6.1-3.2.1-4.8v-.2c-.2-.1-.5 0-.8 0h-9.9c-.2-.7 0-1.3 0-1.9v-3.7c.2 0 .3 0 .4-.1h16.3c.1.7.1 14.6 0 21.6v.5H178v-4h-.8c0 .1-.1.2-.2.3-1.2 2-3 3.3-5.3 3.9-2.9.8-5.7.5-8.5-.5-2.5-1-4.6-2.5-6.2-4.7-1.4-1.9-2.3-4-2.9-6.3-.6-2-.9-4-1.1-6-.2-2.3-.2-4.7-.1-7 .2-3.2.7-6.3 1.8-9.3.6-1.7 1.5-3.3 2.6-4.7 2.3-2.9 5.2-4.6 8.9-5.2 2.6-.4 5.2-.3 7.8.4 4.4 1.3 7.4 4.1 9 8.4.5 1.4.8 2.8 1 4.2v.5c-.6 0-5.9.1-6.7 0v-.5c0-1-.1-2-.4-3v-.1c-.6-2.2-1.9-3.5-4.1-3.9-.4 0-.9-.2-1.3-.2-2-.1-4-.2-6 .2-.2 0-.5.1-.7.2-1.8.5-3 1.6-3.8 3.3-.5 1.1-.8 2.3-.9 3.5 0 1-.2 2-.2 3zM146.1 45.4c-.2-1.9-.5-3.8-1-5.6-.6-2-1.4-3.9-2.6-5.6-1.5-2.2-3.5-3.8-6-4.8-1.6-.6-3.2-1-4.9-1.1H117.5c-.3 0-.6 0-.9.1v43h13.5c1.3 0 2.7-.1 4-.4 3.7-.8 6.6-2.7 8.6-5.8.7-1.1 1.3-2.2 1.7-3.5 1-2.8 1.5-5.7 1.7-8.6.2-2.6.1-5.2-.1-7.7zm-6.7 10.3c0 1.5 0 3-.5 4.4l-.6 1.8c-.7 1.5-1.8 2.5-3.4 3.1-.7.3-1.5.5-2.2.5-.8 0-1.6.2-2.4.2h-7.4V34h7.7c1.1 0 2.2.1 3.3.4.3 0 .7.2 1 .3 1.6.6 2.8 1.6 3.5 3.2.5 1 .7 2 .9 3.1.1 1 .2 2 .2 3v11.8zM108.5 71.1v.2H80.4V28.2h27.2V33.8H86.8v12.8h19v5.5h-19c-.1.3 0 .6 0 .8v12.3h21.7v5.5zM220.1 71.3H192v-43h27.1v5.5H198.3v12.8H217.2v5.5h-18.9v13.2H220.1c.1.5 0 1 0 1.5V71zM72.3 66v5.3H44v-43h6.4v37.6H72.5v.3z"/></svg>