<?xml version="1.0" encoding="UTF-8"?>
<svg id="Layer_2" data-name="Layer 2" xmlns="http://www.w3.org/2000/svg" viewBox="0 0 369.03 318.8">
  <defs>
    <style>
      .cls-1 {
        fill: #fff;
        stroke-width: 0px;
      }
    </style>
  </defs>
  <g id="Layer_1-2" data-name="Layer 1">
    <path class="cls-1" d="M191.61,0c2.97,1.89,7.02,4.86,12.15,8.91,1.08,1.08,2.84,2.63,5.27,4.66s4.18,3.58,5.27,4.66c0,.54.2,1.15.61,1.82.4.68.74,1.01,1.01,1.01,1.35,3.24,3.37,7.84,6.08,13.77,1.35,2.98,2.7,7.56,4.05,13.77L292.88.81l43.75,29.98c1.62-1.89,4.32-4.32,8.1-7.29,2.7-1.62,6.34-3.24,10.94-4.86h1.21c.27,0,.54-.13.81-.4h.41v4.05c-.27.27-.41.68-.41,1.22v2.43c-.27.27-.41.54-.41.81v1.62c-.81.81-1.35,1.62-1.62,2.43l-1.62,1.62c-4.86,6.22-8.51,13.77-10.94,22.69v178.24l8.51,14.99c.81.27,1.62.27,2.43,0,1.08-.27,1.75-.61,2.03-1.01.27-.41.87-.81,1.82-1.22.94-.4,1.62-.74,2.03-1.01.41-.27.87-.67,1.42-1.22l1.22-1.22,6.48,5.67-38.48,36.05h-4.05c-9.18-4.86-16.14-10.87-20.86-18.03-4.73-7.15-7.77-16.67-9.11-28.56V51.85l-28.76-20.25c-.27.81-.68,1.22-1.21,1.22h-.81l-.41.41c-.81.81-1.56,1.42-2.23,1.82-.68.41-1.29.75-1.82,1.01l-.81.81v87.09h24.3l-25.93,34.84v68.05l6.08-1.22c1.08-.54,2.56-1.62,4.46-3.24l6.89,4.46-66.03,57.52c-4.05-4.86-10.53-11.88-19.44-21.06-5.94-5.67-13.77-12.01-23.5-19.04,3.24-2.16,5.87-4.86,7.9-8.1s3.17-6.21,3.44-8.91v-1.22c0-.27.13-.54.41-.81v-66.43h-46.58v78.99c-1.62,15.39-5.34,28.83-11.14,40.31-5.81,11.48-16.14,19.51-30.99,24.1-.27,0-.81.13-1.62.41h-2.03c-.27,0-.81.13-1.62.41h-8.91c-2.16,0-5.67-.27-10.53-.81l-10.94-1.21c-2.43-.54-6.21-1.22-11.34-2.03-2.43-.27-5.94-.4-10.53-.4-6.22,0-12.02,1.42-17.42,4.25s-9.99,8.17-13.77,16c0-.27-.13-.68-.4-1.22v-1.62c0-.54-.27-1.62-.81-3.24v-3.65c0-.27-.13-.81-.41-1.62v-1.21c0-9.18,3.65-17.82,10.94-25.93,7.83-7.02,16.34-11.88,25.52-14.58l2.43-.81c.27,0,.67-.13,1.21-.4h.81c.81,0,1.48-.06,2.03-.2.54-.13,1.08-.34,1.62-.61h.81c24.3,0,38.21-8.64,41.72-25.93v-7.7c0-22.14-9.46-39.7-28.36-52.66-1.08-.81-3.51-1.62-7.29-2.43-1.62-.54-2.84-.81-3.65-.81-2.17-.54-3.44-.81-3.85-.81s-.88-.13-1.42-.41h-5.67c-.81.27-1.49.41-2.03.41h-2.03c-.81.27-1.49.4-2.03.4-1.35.27-3.79.81-7.29,1.62-1.89.81-3.04,1.22-3.44,1.22s-.95.2-1.62.61c-.68.41-1.29.75-1.82,1.01v-.41h-.4v-1.21h-.41v-.81c0-16.2,10.26-27.81,30.79-34.84.81-.27,2.16-.67,4.05-1.22l3.65-1.22c1.62-.54,2.9-.87,3.85-1.01.94-.13,2.23-.2,3.85-.2,1.35-19.17,4.86-35.51,10.53-49.02,6.21-15.12,17.15-27.81,32.81-38.08C135.03,30.52,163.79,14.04,191.61.81v-.81ZM131.65,45.77c-3.24,2.97-7.84,7.84-13.77,14.58-4.32,6.22-7.29,11.75-8.91,16.61v152.31c0,7.56-2.77,14.65-8.3,21.27-5.54,6.62-11.41,11.54-17.62,14.79.54,0,1.08.2,1.62.61.54.4.94.75,1.22,1.01,1.62.54,2.83.81,3.65.81h.81c.27.27.54.47.81.61.27.14.67.2,1.22.2h5.67c-.81,0,2.03-.94,8.51-2.84,5.13-1.35,8.91-4.59,11.34-9.72,0-.27.13-.54.4-.81v-.41c0-.27.13-.54.41-.81v-.41c.27-.54.54-1.15.81-1.82.27-.67.41-1.08.41-1.22s.67-2.9,2.03-8.3c0-.81.13-1.62.41-2.43V76.16c0-1.08.13-2.29.4-3.65.27-1.35.54-2.56.81-3.65.27-1.08.54-1.75.81-2.03.54-2.43,1.48-5.94,2.83-10.53.54-1.89,2.03-5.13,4.46-9.72v-.81ZM160.01,33.22h-2.43c-.27.54-.68.81-1.21.81h-.41l-.41.4h-1.21c-.54.54-1.08.81-1.62.81h-1.21c-1.89,1.89-5.27,6.48-10.13,13.77-3.51,5.13-6.22,10.27-8.1,15.39v84.66l18.23-26.74h27.55V52.66c-.27-3.24-2.37-6.89-6.28-10.94-3.92-4.05-8.17-6.61-12.76-7.7v-.81ZM249.53,47.8l-24.31,17.42v58.74h24.31V47.8ZM226.04,158.79v69.68c0,5.67.67,10.13,2.03,13.37,1.62,4.32,3.78,7.97,6.48,10.94,3.24-.54,6.01-1.55,8.3-3.04,2.29-1.48,4.52-3.3,6.68-5.47v-85.47h-23.5Z"/>
  </g>
</svg>